<svg width="18" height="18" viewBox="0 0 18 18" fill="none" xmlns="http://www.w3.org/2000/svg">
<path d="M17.3324 1.96875C17.754 2.42578 18 2.95312 18 3.58594C18 4.21875 17.754 4.74609 17.3324 5.16797L4.9634 17.543L0.852123 18C0.57101 18 0.360176 17.9297 0.219619 17.7188C0.0439239 17.543 -0.0263543 17.332 0.00878477 17.0508L0.465593 13.043L12.8346 0.667969C13.2562 0.246094 13.7833 0 14.4158 0C15.0483 0 15.5754 0.246094 16.0322 0.667969L17.3324 1.96875ZM4.19034 15.9258L13.3968 6.71484L11.2884 4.60547L2.08199 13.8164L1.80088 16.207L4.19034 15.9258ZM16.1376 3.97266C16.243 3.86719 16.3133 3.72656 16.3133 3.58594C16.3133 3.44531 16.243 3.30469 16.1376 3.16406L14.8375 1.86328C14.6969 1.75781 14.5564 1.6875 14.4158 1.6875C14.2753 1.6875 14.1347 1.75781 14.0293 1.86328L12.4832 3.41016L14.5915 5.51953L16.1376 3.97266Z" fill="white"/>
</svg>
