<svg width="4" height="14" viewBox="0 0 4 14" fill="#828282" xmlns="http://www.w3.org/2000/svg">
<path d="M2 5.5C1.5625 5.5 1.21875 5.65625 0.9375 5.9375C0.625 6.25 0.5 6.59375 0.5 7C0.5 7.4375 0.625 7.78125 0.9375 8.0625C1.21875 8.375 1.5625 8.5 2 8.5C2.40625 8.5 2.75 8.375 3.0625 8.0625C3.34375 7.78125 3.5 7.4375 3.5 7C3.5 6.59375 3.34375 6.25 3.0625 5.9375C2.75 5.65625 2.40625 5.5 2 5.5ZM0.5 2.25C0.5 1.84375 0.625 1.5 0.9375 1.1875C1.21875 0.90625 1.5625 0.75 2 0.75C2.40625 0.75 2.75 0.90625 3.0625 1.1875C3.34375 1.5 3.5 1.84375 3.5 2.25C3.5 2.6875 3.34375 3.03125 3.0625 3.3125C2.75 3.625 2.40625 3.75 2 3.75C1.5625 3.75 1.21875 3.625 0.9375 3.3125C0.625 3.03125 0.5 2.6875 0.5 2.25ZM0.5 11.75C0.5 11.3438 0.625 11 0.9375 10.6875C1.21875 10.4062 1.5625 10.25 2 10.25C2.40625 10.25 2.75 10.4062 3.0625 10.6875C3.34375 11 3.5 11.3438 3.5 11.75C3.5 12.1875 3.34375 12.5312 3.0625 12.8125C2.75 13.125 2.40625 13.25 2 13.25C1.5625 13.25 1.21875 13.125 0.9375 12.8125C0.625 12.5312 0.5 12.1875 0.5 11.75Z" />
</svg>
