<svg width="16" height="16" viewBox="0 0 16 16" fill="none" xmlns="http://www.w3.org/2000/svg">
<path d="M9.7 8L15.9 14.2C15.95 14.3 16 14.4 16 14.5C16 14.6 15.95 14.7 15.9 14.75L14.75 15.9C14.65 16 14.55 16 14.45 16C14.35 16 14.25 16 14.2 15.9L8 9.7L1.8 15.9C1.7 16 1.6 16 1.5 16C1.4 16 1.3 16 1.25 15.9L0.1 14.75C0 14.7 0 14.6 0 14.5C0 14.4 0 14.3 0.1 14.2L6.3 8L0.1 1.8C0 1.75 0 1.65 0 1.55C0 1.45 0 1.35 0.1 1.25L1.25 0.1C1.3 0.05 1.4 0 1.5 0C1.6 0 1.7 0.05 1.8 0.1L8 6.3L14.2 0.1C14.25 0.05 14.35 0 14.45 0C14.55 0 14.65 0.05 14.75 0.1L15.9 1.25C15.95 1.35 16 1.45 16 1.55C16 1.65 15.95 1.75 15.9 1.8L14.85 2.85L9.7 8Z" fill="white"/>
</svg>
