<svg width="24" height="24" viewBox="0 0 24 24" fill="none" xmlns="http://www.w3.org/2000/svg">
<path d="M22.7032 7.65455L18.4256 11.8839V9.32184L24 3.81029L22.7032 2.52811L18.4256 6.75748V0H16.5926V6.75522L12.3196 2.53037L11.0228 3.81029L16.5926 9.31731V11.8794L12.3196 7.65455L7.39819 2.78862V0H5.56525V2.80221L0 8.3047L1.2968 9.58688L5.56525 5.3643V7.92639L0 13.4311L1.2968 14.7111L5.56525 10.4907V24H7.39819V10.4772L11.6804 14.7111L12.9749 13.4289L7.39819 7.91506V5.35298L11.6804 9.58688V9.58461L16.5926 14.4437V24H18.4256V14.446L24 8.93673L22.7032 7.65455Z" fill="black"/>
</svg>
