<svg width="637" height="254" viewBox="0 0 637 254" fill="none" xmlns="http://www.w3.org/2000/svg">
<path d="M115.685 110.921C132.719 98.699 135.293 42.2913 140.63 20.6271C145.968 -1.03697 168.043 0.0618098 168.043 0.0618098C168.043 0.0618098 162.312 10.0353 164.649 17.478C166.987 24.9207 183 31.5735 183 31.5735L179.546 40.6787C179.546 40.6787 172.334 39.7562 168.043 48.3408C156.833 70.7637 176.368 136.236 176.368 136.236C176.368 136.236 145.007 180.759 145.007 214.282C145.007 235.763 155.174 253.765 155.174 253.765H140.907C140.907 253.765 119.978 228.858 115.685 216.41C111.393 203.962 113.109 191.515 113.109 191.515C113.109 191.515 90.3595 190.227 70.1863 191.515C50.0132 192.802 36.5597 210.144 34.1316 219.844C31.7036 229.544 30.6978 253.765 30.6978 253.765H19.4169C12.5507 232.576 7.09751 224.982 10.0558 214.282C18.2501 184.647 16.6405 167.839 14.7433 160.352C12.846 152.866 0 146.331 0 146.331C6.29266 133.511 16.4152 127.265 40.3455 126.708C67.9751 126.066 98.6519 123.142 115.685 110.921Z" fill="#EC4815"/>
<path d="M44.113 213.041C44.113 213.041 47.0281 240.018 62.5148 253.765H75.7865C62.5148 238.73 61.0676 199.54 61.0676 199.54C54.3171 201.738 44.9715 209.607 44.113 213.041Z" fill="#EC4815"/>
<path d="M290 124V153.6H261.6V195.6C261.6 205 265 208.6 277.2 208.6C281.4 208.6 286.6 208.2 291.6 207.8V237C286.2 238.2 277.4 239.6 266.4 239.6C231.6 239.6 225.2 219.6 225.2 204.2V153.6H207.2V124H225.2V106.2L259.6 90.4H261.6V124H290Z" fill="#EC4815"/>
<path d="M320.581 81.2H359.781V110.4H320.581V81.2ZM302.781 153.6V124H359.581V236H323.181V153.6H302.781Z" fill="#EC4815"/>
<path d="M420.022 138.8H423.622C427.222 127.6 435.022 120 457.022 120C480.022 120 497.422 131.2 497.422 158.4V236H461.022V169.2C461.022 157 454.222 151.4 443.022 151.4C430.422 151.4 423.422 157.6 423.422 172.8V236H387.022V124H420.022V138.8Z" fill="#EC4815"/>
<path d="M592.605 219H590.605C584.805 229.8 571.005 238.8 554.005 238.8C529.005 238.8 516.205 226.4 516.205 207C516.205 187.8 527.605 176.6 548.805 173.2L580.405 168.2C587.405 167 589.205 163.2 589.205 159.8V157.6C589.205 152.6 585.605 146.4 573.605 146.4C563.405 146.4 557.405 151 556.805 158.8H522.005C523.405 136.2 538.805 120 572.005 120C606.805 120 624.005 134 624.005 156.4V206.8H636.605V236H592.605V219ZM589.205 192.4V183H587.205C585.205 185.2 582.405 186.8 578.005 187.8L563.205 191.4C556.605 193 553.405 196.8 553.405 203C553.405 210.4 558.205 214.2 567.805 214.2C582.005 214.2 589.205 204.4 589.205 192.4Z" fill="#EC4815"/>
</svg>
