<svg preserveAspectRatio="none" viewBox="0 0 1200 450" fill="none" xmlns="http://www.w3.org/2000/svg">
<path d="M165.3 291.274C116.039 298.171 118.68 351.298 126.158 377H473.663C484.355 314.933 428.315 306.44 398.72 312.826C391.846 285.24 363.715 281.217 350.509 282.654C339.53 124.133 149.548 207.463 165.3 291.274Z" fill="url(#paint0_linear)"/>
<path d="M1038.58 362.206C1180.03 290.272 1213.97 398.456 1195.3 450H690.626C672.522 398.456 727.214 385.995 744.376 390.526C720.047 342.948 780.397 329.542 817.361 329.354C846.782 248.923 939.57 225.699 959.938 322.556C1026.13 277.809 1052.16 342.948 1038.58 362.206Z" fill="url(#paint1_linear)"/>
<path d="M498.573 112.174C428.783 103.676 423.747 146.517 429.953 169H947C937.212 123.964 903.203 123.326 887.423 128.637C876.784 61.9327 826.604 67.5622 802.844 78.715C798.163 13.7101 762.948 14.4537 745.926 22.9512C727.308 -15.2867 687.413 0.114672 687.413 26.6689C651.666 21.5705 634.75 44.7255 643.793 70.7491C587.408 13.9226 498.573 78.715 498.573 112.174Z" fill="url(#paint2_linear)"/>
<defs>
<linearGradient id="paint0_linear" x1="298.5" y1="193" x2="298.5" y2="377" gradientUnits="userSpaceOnUse">
<stop stop-color="white" stop-opacity="0.8" />
<stop offset="1" stop-color="white" stop-opacity="0.5"/>
</linearGradient>
<linearGradient id="paint1_linear" x1="943.5" y1="259" x2="943.5" y2="450" gradientUnits="userSpaceOnUse">
<stop stop-color="white" stop-opacity="0.8" />
<stop offset="1" stop-color="white" stop-opacity="0.5"/>
</linearGradient>
<linearGradient id="paint2_linear" x1="687.5" y1="0" x2="687.5" y2="169" gradientUnits="userSpaceOnUse">
<stop stop-color="white" stop-opacity="0.8" />
<stop offset="1" stop-color="white" stop-opacity="0.5"/>
</linearGradient>
</defs>
</svg>
