<svg preserveAspectRatio="none" viewBox="0 0 1200 450" fill="none" xmlns="http://www.w3.org/2000/svg">
<path d="M326.981 36.3393C411.781 3.93925 433.981 65.1726 434.481 99.8392H66.4814C49.9814 68.8389 73.9812 52.3389 95.4814 68.8389C79.9812 17.3389 158.481 20.1722 199.481 31.8389C206.481 -2.16179 236.981 -16.6616 247.981 27.839C299.581 -2.96098 322.148 20.6725 326.981 36.3393Z" fill="url(#paint0_linear)"/>
<path d="M807 249.873H1137.5C1148.3 217.473 1107 220.706 1085 226.373C1105 185.973 1053 187.873 1024.5 193.873C971.7 140.673 915.833 185.04 894.5 213.873C874.1 208.673 870 223.373 870.5 231.373C834.5 218.573 813.167 238.373 807 249.873Z" fill="url(#paint1_linear)"/>
<path d="M379.032 337.508C260.169 319.846 234.905 351.81 237.131 370H662C652.985 305.682 608.439 307.932 587.293 317.096C579.614 271.107 547.088 278.772 531.785 288.353C524.69 192.959 394.057 244.197 424.524 297.517C382.121 298.184 376.528 324.455 379.032 337.508Z" fill="url(#paint2_linear)"/>
<defs>
<linearGradient id="paint0_linear" x1="247.741" y1="0" x2="247.741" y2="99.8392" gradientUnits="userSpaceOnUse">
<stop stop-color="white" stop-opacity="0.8" />
<stop offset="1" stop-color="white" stop-opacity="0.5"/>
</linearGradient>
<linearGradient id="paint1_linear" x1="973.134" y1="169" x2="973.134" y2="249.873" gradientUnits="userSpaceOnUse">
<stop stop-color="white" stop-opacity="0.8" />
<stop offset="1" stop-color="white" stop-opacity="0.5"/>
</linearGradient>
<linearGradient id="paint2_linear" x1="449.5" y1="235" x2="449.5" y2="370" gradientUnits="userSpaceOnUse">
<stop stop-color="white" stop-opacity="0.8" />
<stop offset="1" stop-color="white" stop-opacity="0.5"/>
</linearGradient>
</defs>
</svg>
