<svg viewBox="0 0 32 32" fill="none" xmlns="http://www.w3.org/2000/svg">
<path d="M21.4 8C19.4149 8 17.8 9.57 17.8 11.5C17.8 13.054 18.8543 14.359 20.2994 14.815C20.1493 15.747 19.7368 16.515 19.0343 17.138C17.0327 18.911 13.3494 19.073 11.6286 19.045V12.837C13.1097 12.403 14.2 11.08 14.2 9.5C14.2 7.57 12.5851 6 10.6 6C8.61486 6 7 7.57 7 9.5C7 11.08 8.09029 12.403 9.57143 12.837V19.163C8.09029 19.597 7 20.92 7 22.5C7 24.43 8.61486 26 10.6 26C12.5851 26 14.2 24.43 14.2 22.5C14.2 21.949 14.056 21.435 13.8225 20.971C15.9414 20.785 18.6126 20.214 20.4146 18.621C21.543 17.624 22.1951 16.357 22.373 14.853C23.884 14.438 25 13.1 25 11.5C25 9.57 23.3851 8 21.4 8ZM9.05714 9.5C9.05714 8.673 9.74937 8 10.6 8C11.4506 8 12.1429 8.673 12.1429 9.5C12.1429 10.327 11.4506 11 10.6 11C9.74937 11 9.05714 10.327 9.05714 9.5ZM10.6 24C9.74937 24 9.05714 23.327 9.05714 22.5C9.05765 22.1056 9.2179 21.7273 9.50319 21.4469C9.78848 21.1666 10.1759 21.0067 10.5815 21.002L10.7152 21.012C10.917 21.0194 11.1153 21.0653 11.2989 21.1472C11.4824 21.229 11.6476 21.3452 11.7849 21.4892C11.9223 21.6331 12.0291 21.8019 12.0994 21.986C12.1696 22.1701 12.2019 22.3658 12.1943 22.562C12.1867 22.7582 12.1395 22.951 12.0553 23.1295C11.9711 23.3079 11.8515 23.4685 11.7035 23.602C11.5554 23.7355 11.3818 23.8394 11.1924 23.9077C11.0031 23.976 10.8018 24.0074 10.6 24ZM21.4 13C20.5494 13 19.8571 12.327 19.8571 11.5C19.8571 10.673 20.5494 10 21.4 10C22.2506 10 22.9429 10.673 22.9429 11.5C22.9429 12.327 22.2506 13 21.4 13Z" fill="inherit"/>
</svg>
