<svg xmlns="http://www.w3.org/2000/svg" fill="inherit" viewBox="0 0 32 31.21">
    <g id="Layer_2" data-name="Layer 2">
      <g id="Layer_1-2" data-name="Layer 1">
        <path d="M16,0a16,16,0,0,0-5.06,31.18c.8.15,1.09-.34,1.09-.77s0-1.38,0-2.72c-4.45,1-5.39-2.14-5.39-2.14A4.25,4.25,0,0,0,4.85,23.2c-1.46-1,.11-1,.11-1a3.39,3.39,0,0,1,2.45,1.65,3.39,3.39,0,0,0,4.65,1.33,3.44,3.44,0,0,1,1-2.14c-3.55-.4-7.29-1.78-7.29-7.91a6.21,6.21,0,0,1,1.65-4.29A5.67,5.67,0,0,1,7.6,6.64S8.94,6.21,12,8.28a15.12,15.12,0,0,1,8,0c3-2.07,4.39-1.64,4.39-1.64a5.72,5.72,0,0,1,.16,4.23,6.16,6.16,0,0,1,1.65,4.29c0,6.15-3.74,7.5-7.31,7.9A3.79,3.79,0,0,1,20,26c0,2.14,0,3.87,0,4.39s.29.93,1.1.77A16,16,0,0,0,16,0Z" />
      </g>
    </g>
  </svg>