<svg viewBox="0 0 24 24" focusable="false" role="img" fill="inherit" xmlns="http://www.w3.org/2000/svg" class="sc-AykKC fRbkUu"><path d="M8.465 11.293c1.133-1.133 3.109-1.133 4.242 0l.707.707 1.414-1.414-.707-.707c-.943-.944-2.199-1.465-3.535-1.465s-2.592.521-3.535 1.465L4.929 12a5.008 5.008 0 000 7.071 4.983 4.983 0 003.535 1.462A4.982 4.982 0 0012 19.071l.707-.707-1.414-1.414-.707.707a3.007 3.007 0 01-4.243 0 3.005 3.005 0 010-4.243l2.122-2.121z"></path><path d="M12 4.929l-.707.707 1.414 1.414.707-.707a3.007 3.007 0 014.243 0 3.005 3.005 0 010 4.243l-2.122 2.121c-1.133 1.133-3.109 1.133-4.242 0L10.586 12l-1.414 1.414.707.707c.943.944 2.199 1.465 3.535 1.465s2.592-.521 3.535-1.465L19.071 12a5.008 5.008 0 000-7.071 5.006 5.006 0 00-7.071 0z"></path></svg>