<svg viewBox="0 0 447 190" fill="none" xmlns="http://www.w3.org/2000/svg">
<path d="M169.691 90.1862V104.629H194.604V174.435H213.5V104.629H238.414V90.1862H169.691Z" fill="#EC4815"/>
<path d="M256.378 82.2427V97.5279H275.996V82.2427H256.378ZM246.027 121.238H258.665V174.435H275.876V107.036H246.027V121.238Z" fill="#EC4815"/>
<path d="M314.344 116.664V107.036H298.578V174.435H315.909V135.681C315.909 125.21 320.964 119.673 330.111 119.673C339.258 119.673 343.11 124.488 343.11 133.274V174.435H360.441V127.978C360.441 111.61 350.331 104.629 336.731 104.629C323.853 104.629 318.557 109.443 316.15 116.664H314.344Z" fill="#EC4815"/>
<path d="M423.066 163.483V174.435H446.295V160.354H438.231V126.654C438.231 113.295 429.325 104.629 409.466 104.629C390.931 104.629 381.784 114.257 380.821 127.015H397.551C398.273 121.238 402.485 117.507 410.309 117.507C419.215 117.507 421.622 122.442 421.622 126.534V128.339C421.622 130.866 420.539 132.913 415.484 133.875L397.19 136.884C384.914 138.81 377.692 145.43 377.692 157.104C377.692 168.418 385.515 176 399.477 176C410.188 176 418.372 170.704 421.863 163.483H423.066ZM421.622 148.438C421.622 156.623 415.845 163.724 405.735 163.724C398.875 163.724 395.384 160.835 395.384 155.299C395.384 150.364 397.912 147.596 403.448 146.272L414.28 143.865C417.049 143.263 419.215 142.421 420.419 141.097H421.622V148.438Z" fill="#EC4815"/>
<path d="M87.9637 84.4033C97.1946 76.7661 101.285 31.6317 105.281 15.4079C109.276 -0.815879 125.802 0.00697925 125.802 0.00697925C125.802 0.00697925 121.512 7.47591 123.262 13.0496C125.012 18.6233 137 23.6054 137 23.6054L134.414 30.4241C134.414 30.4241 129.015 29.7333 125.802 36.1621C122.589 42.5909 129.827 105.593 129.827 105.593C129.827 105.593 108.557 144.346 108.557 160.432C108.557 176.518 116.169 190 116.169 190H105.488C105.488 190 89.8193 171.347 86.606 162.026C83.3926 152.704 84.6775 143.382 84.6775 143.382C84.6775 143.382 67.6462 142.418 52.5439 143.382C37.4415 144.346 27.3698 157.333 25.5521 164.597C23.7344 171.862 22.9814 190 22.9814 190H14.5361C9.39589 174.132 5.31343 168.445 7.52815 160.432C13.6627 138.239 12.4577 125.651 11.0373 120.045C9.61695 114.439 0 109.545 0 109.545C4.71089 99.9447 9.51954 95.3312 30.204 94.85C50.8884 94.3688 78.7329 92.0406 87.9637 84.4033Z" fill="#EC4815"/>
<path d="M32.6617 159.503C32.6617 159.503 34.8441 179.705 46.4379 190H56.3736C46.4379 178.741 45.3545 149.392 45.3545 149.392C40.3009 151.038 33.9682 156.501 32.6617 159.503Z" fill="#EC4815"/>
</svg>
