<svg viewBox="0 0 273 42" fill="none" xmlns="http://www.w3.org/2000/svg">
<path d="M0 3.91436V11.796H10.4736V40.9421H21V11.796H31.4736V3.91436H0Z" fill="#EC4815"/>
<path d="M39.9676 0V7.72292H50.3354V0H39.9676ZM35.2598 19.1486H40.6553V40.9421H50.2825V11.3199H35.2598V19.1486Z" fill="#EC4815"/>
<path d="M68.3839 15.2343V11.3199H59.6559V40.9421H69.2831V24.2267C69.2831 20.2066 71.1345 18.5668 74.467 18.5668C77.4292 18.5668 79.2277 20.0479 79.2277 23.2746V40.9421H88.8549V20.4181C88.8549 13.2242 84.2529 10.262 78.1698 10.262C72.3511 10.262 70.2882 12.272 69.336 15.2343H68.3839Z" fill="#EC4815"/>
<path d="M116.145 36.4458V40.9421H127.782V33.2191H124.45V19.8892C124.45 13.9647 119.901 10.262 110.697 10.262C101.916 10.262 97.8428 14.5466 97.4725 20.5239H106.677C106.835 18.461 108.422 17.2443 111.12 17.2443C114.294 17.2443 115.246 18.8841 115.246 20.2065V20.7884C115.246 21.6877 114.77 22.6927 112.918 23.0101L104.561 24.3325C98.9536 25.2317 95.9385 28.194 95.9385 33.272C95.9385 38.403 99.3239 41.6826 105.936 41.6826C110.432 41.6826 114.082 39.3023 115.616 36.4458H116.145ZM115.246 29.4106C115.246 32.5844 113.342 35.1763 109.586 35.1763C107.047 35.1763 105.777 34.1713 105.777 32.2141C105.777 30.5743 106.624 29.5693 108.369 29.1461L112.284 28.194C113.447 27.9295 114.188 27.5063 114.717 26.9244H115.246V29.4106Z" fill="#EC4815"/>
<path d="M161.676 15.9748C161.359 8.0403 157.127 2.85642 148.082 2.85642C136.868 2.85642 133.641 10.8967 133.641 22.4282C133.641 34.33 136.445 42 148.346 42C157.762 42 161.888 36.1814 161.994 28.67H156.228C156.122 33.6952 153.583 37.2393 148.452 37.2393C141.946 37.2393 139.513 32.267 139.513 22.4282C139.513 12.5894 141.734 7.51134 148.135 7.51134C152.948 7.51134 155.593 10.6851 155.805 15.9748H161.676Z" fill="#EC4815"/>
<path d="M179.963 36.1814H173.616V0.740554H168.062V40.9421H179.963V36.1814Z" fill="#EC4815"/>
<path d="M196.672 42C206.088 42 210.055 36.1285 210.055 26.131C210.055 16.1335 206.088 10.262 196.672 10.262C187.257 10.262 183.29 16.1335 183.29 26.131C183.29 36.1285 187.257 42 196.672 42ZM196.672 14.7053C201.962 14.7053 204.66 18.5139 204.66 26.131C204.66 33.7481 201.962 37.5567 196.672 37.5567C191.383 37.5567 188.685 33.7481 188.685 26.131C188.685 18.5139 191.383 14.7053 196.672 14.7053Z" fill="#EC4815"/>
<path d="M235.305 36.4458V40.9421H240.436V11.3199H234.882V28.67C234.882 33.9597 232.026 37.0277 227.9 37.0277C222.769 37.0277 221.393 34.33 221.393 29.7809V11.3199H215.839V31.5793C215.839 38.8262 219.807 42 225.625 42C230.65 42 233.507 39.9899 234.671 36.4458H235.305Z" fill="#EC4815"/>
<path d="M267.89 36.4458V40.9421H272.969V0.740554H267.573V15.8161H266.885C265.563 12.3249 263.024 10.262 258.686 10.262C250.117 10.262 246.679 16.6625 246.679 26.131C246.679 36.4458 250.646 42 258.634 42C262.283 42 265.563 40.3073 267.256 36.4458H267.89ZM259.797 37.5567C254.825 37.5567 252.127 33.9597 252.127 26.131C252.127 18.3023 254.984 14.7053 259.956 14.7053C265.14 14.7053 267.732 18.2494 267.732 26.131C267.732 33.7481 264.981 37.5567 259.797 37.5567Z" fill="#EC4815"/>
</svg>
