<svg fill="inherit" viewBox="0 0 61 46" xmlns="http://www.w3.org/2000/svg">
  <path d="M19.3583 45.1694C42.0213 45.1694 54.417 28.1053 54.417 13.3074C54.417 12.8228 54.417 12.3403 54.381 11.86C56.7925 10.2747 58.8741 8.31195 60.5284 6.06349C58.2796 6.9691 55.894 7.56299 53.4513 7.82535C56.0235 6.42587 57.9486 4.22472 58.8684 1.63155C56.4497 2.93593 53.8036 3.85519 51.0442 4.34966C49.1865 2.55436 46.7294 1.36556 44.0533 0.967221C41.3772 0.568881 38.6313 0.983209 36.2404 2.14609C33.8495 3.30897 31.947 5.15557 30.8272 7.40014C29.7074 9.64471 29.4329 12.1621 30.046 14.5628C25.1472 14.3396 20.3548 13.1826 15.9799 11.167C11.605 9.15133 7.74536 6.32208 4.65163 2.86289C3.07596 5.3281 2.59336 8.24641 3.3021 11.0236C4.01084 13.8009 5.85762 16.2282 8.46643 17.8114C6.50556 17.7586 4.58744 17.2779 2.87395 16.4098C2.87395 16.4556 2.87395 16.5037 2.87395 16.5517C2.87473 19.1371 3.85951 21.6427 5.66126 23.6435C7.46301 25.6442 9.9708 27.017 12.7593 27.5289C10.9453 27.9786 9.04197 28.0443 7.19563 27.7211C7.98299 29.9461 9.51589 31.8919 11.5799 33.2863C13.644 34.6806 16.1359 35.4538 18.7073 35.4977C14.3441 38.6141 8.95423 40.3059 3.40485 40.3008C2.42449 40.2991 1.44509 40.2451 0.47168 40.1392C6.10653 43.4256 12.663 45.1688 19.3583 45.1607" />
</svg>