<svg xmlns="http://www.w3.org/2000/svg" viewBox="0 0 49 68" fill="#EC4815"><path d="M31.462 30.178c3.301-2.73 4.764-18.868 6.193-24.669 1.43-5.8 7.34-5.507 7.34-5.507s-1.534 2.671-.909 4.664C44.712 6.659 49 8.44 49 8.44l-.925 2.438s-1.93-.247-3.08 2.052c-1.15 2.298.739 25.058.739 25.058s-6.907 13.623-6.907 19.374c0 5.752 2.723 10.572 2.723 10.572h-3.82s-5.605-6.67-6.754-10.002c-1.15-3.333-.69-6.666-.69-6.666s-6.091-.345-11.493 0c-5.401.345-9.004 4.988-9.654 7.585-.65 2.598-.92 9.083-.92 9.083H5.2C3.361 62.26 1.9 60.227 2.693 57.362c2.194-7.935 1.763-12.436 1.255-14.44C3.44 40.917 0 39.168 0 39.168c1.685-3.433 3.405-5.083 10.803-5.255 7.398-.172 17.357-1.004 20.658-3.735z"></path><path d="M12.25 57.03s.78 7.223 4.927 10.904h3.554c-3.554-4.026-3.941-14.519-3.941-14.519-1.808.589-4.31 2.696-4.54 3.615z"></path></svg>